PathFileType	4	(X/Y/Z)	/Users/niels/Desktop/University/Third Semester/Perception and Action/Exam/Gymnastics Motion Tracking/Code for Gym Tracking/Analyzed Data/Webcam_Backflip/id4_1_pure_Sports2D/id4_1_pure_Sports2D_px_person00.trc
DataRate	CameraRate	NumFrames	NumMarkers	Units	OrigDataRate	OrigDataStartFrame	OrigNumFrames
29.8125	29.8125	11	22	m	29.8125	120	160
Frame#	Time	Hip			RHip			RKnee			RAnkle			RBigToe			RSmallToe			RHeel			LHip			LKnee			LAnkle			LBigToe			LSmallToe			LHeel			Neck			Head			Nose			RShoulder			RElbow			RWrist			LShoulder			LElbow			LWrist		
		X1	Y1	Z1	X2	Y2	Z2	X3	Y3	Z3	X4	Y4	Z4	X5	Y5	Z5	X6	Y6	Z6	X7	Y7	Z7	X8	Y8	Z8	X9	Y9	Z9	X10	Y10	Z10	X11	Y11	Z11	X12	Y12	Z12	X13	Y13	Z13	X14	Y14	Z14	X15	Y15	Z15	X16	Y16	Z16	X17	Y17	Z17	X18	Y18	Z18	X19	Y19	Z19	X20	Y20	Z20	X21	Y21	Z21	X22	Y22	Z22
120	4.025157232704402	0.7501672635979485	-0.5938398790831746	0.0	0.7419851777281995	-0.593287994325613	0.0	0.758462567523492	-0.7015783486096624	0.0	0.7264027726136078	-0.8036590374444252	0.0	0.7525196336403059	-0.8259366484604429	0.0	0.7405732251442885	-0.8262945584837937	0.0	0.7150694074142947	-0.817486281020706	0.0	0.7605388999018943	-0.593236701695782	0.0	0.7545495975995615	-0.6993732160918764	0.0	0.7281035813749845	-0.8000944651481092	0.0	0.7543462112326721	-0.8228494223054088	0.0	0.7489877985488532	-0.8190612917835702	0.0	0.7141645521311704	-0.8120197704832316	0.0	0.7612204689096025	-0.44787960402551796	0.0	0.7757211197717997	-0.37764733667174416	0.0	0.7854457505147305	-0.41446917855169507	0.0	0.7446476314351157	-0.4605097045320516	0.0	0.7753857859439154	-0.4851709386739366	0.0	0.799902739899334	-0.43285272494286914	0.0	0.7742664610823191	-0.4617183514626351	0.0	0.8098050220583652	-0.488081331674488	0.0	0.8300751708110938	-0.4515526427905457	0.0
121	4.058700209643606	0.7508555926664912	-0.5903802848336213	0.0	0.7424364533225094	-0.5899669433349368	0.0	0.7624182753358393	-0.6977507017756358	0.0	0.7261517006245859	-0.7991686226878532	0.0	0.7521539921312254	-0.8239079060338643	0.0	0.739303087285476	-0.8239143375981963	0.0	0.713569486013704	-0.8125838303694257	0.0	0.7610964101774828	-0.5900982304039843	0.0	0.7536121682254665	-0.6956012010307406	0.0	0.7276804308958186	-0.7962082031654713	0.0	0.755394706530493	-0.8206838966331752	0.0	0.7498295590054144	-0.8165279486470431	0.0	0.7131162457078127	-0.8087282864586529	0.0	0.7637784049776869	-0.44368175882830213	0.0	0.7787955578213726	-0.3751556837578231	0.0	0.7889167857626694	-0.41155074662692054	0.0	0.7447799013828761	-0.4577477807242985	0.0	0.7662694035746465	-0.5011801783561741	0.0	0.8019030791818476	-0.45953103187749145	0.0	0.775779397278724	-0.46057152615157043	0.0	0.8017425309427855	-0.50147745969357	0.0	0.8329724699394303	-0.4777757064339408	0.0
122	4.092243186582809	0.7515647213800696	-0.5842658699010654	0.0	0.7435065426069644	-0.5840873269873159	0.0	0.7678745166673858	-0.691326853942583	0.0	0.7266379367670023	-0.7915703112028147	0.0	0.7528420913366306	-0.8197273102646818	0.0	0.739514701517021	-0.8193522234859	0.0	0.7126186871609124	-0.8049054266815183	0.0	0.7605548548990905	-0.5841897022373623	0.0	0.752558677713449	-0.6893404446567962	0.0	0.7274347325716781	-0.7899587053390169	0.0	0.7573874558541808	-0.8168911186815864	0.0	0.7515713279094971	-0.8122820231134332	0.0	0.7124435172482556	-0.8032884019614899	0.0	0.7663090027700621	-0.4371422205972757	0.0	0.7822155936288503	-0.36951448537979986	0.0	0.7921770999960948	-0.4057654765941083	0.0	0.7455300486384049	-0.4525297823912506	0.0	0.7578975557699678	-0.5108015311887999	0.0	0.8023562165615249	-0.4855714361539227	0.0	0.7770100865112809	-0.4563486245601236	0.0	0.7929926592287057	-0.5088475637700192	0.0	0.8337578249181401	-0.4997530881386491	0.0
123	4.125786163522012	0.7523748755169244	-0.5763929210017396	0.0	0.7452949743797584	-0.576541445579545	0.0	0.7747270407942287	-0.6830056044029447	0.0	0.7282489850265002	-0.7813973019203043	0.0	0.7547357462930265	-0.8134333024043046	0.0	0.7414049472191092	-0.8126478431545745	0.0	0.7128613881508313	-0.795019609005959	0.0	0.7590883003099671	-0.5763622472018002	0.0	0.7516779914681342	-0.681426723005423	0.0	0.7275127142181055	-0.7820269218715643	0.0	0.7600804087162499	-0.8115779246682869	0.0	0.7540746249556292	-0.8066696711158007	0.0	0.712476003873549	-0.7963868958815741	0.0	0.7685306939537111	-0.4292326794329833	0.0	0.7856498747390919	-0.36167768407055184	0.0	0.7948713632999957	-0.39813187756464646	0.0	0.7467835678033211	-0.44588738861825244	0.0	0.7513290579001034	-0.5144425582040859	0.0	0.8001613275444757	-0.509906366459287	0.0	0.7780410641381119	-0.44965335671608836	0.0	0.785163703170012	-0.5104667419624391	0.0	0.8317973446218871	-0.5161669309989365	0.0
124	4.159329140461216	0.75342308809503	-0.5678866149403772	0.0	0.7478211076361996	-0.5683718756737851	0.0	0.7825772205595621	-0.6735199459118943	0.0	0.7313448223068638	-0.7697234857901762	0.0	0.757959927738577	-0.8054565676901937	0.0	0.7450720293942783	-0.8042945988304633	0.0	0.7149928002002504	-0.7839091459359582	0.0	0.7572148438266517	-0.5677824682455389	0.0	0.7510719897058505	-0.6728661529083175	0.0	0.7279802910681455	-0.773349343950961	0.0	0.7632003071977451	-0.8049051670285993	0.0	0.7570972390768231	-0.8000068420080223	0.0	0.713362069031229	-0.7888053633322871	0.0	0.7703824547800916	-0.4206840716909292	0.0	0.788729473660054	-0.35281484830012066	0.0	0.7970196586372913	-0.38954884518165006	0.0	0.7483946787903257	-0.43866930095872675	0.0	0.7468751133697678	-0.5134808704090177	0.0	0.7949265254348756	-0.5308496213557911	0.0	0.7790300788375017	-0.4414165088727349	0.0	0.7792902203857779	-0.5075857888642469	0.0	0.8271618552542053	-0.5265360730781847	0.0
125	4.192872117400419	0.7548427435579295	-0.5598111807364715	0.0	0.7509488673868757	-0.5605405659230563	0.0	0.7907743758889886	-0.6636512634996152	0.0	0.7362586307281124	-0.7580882027188642	0.0	0.7629117488613092	-0.7966230423998127	0.0	0.7508228966139435	-0.795272049248024	0.0	0.7196318727582021	-0.7729892129030088	0.0	0.7555817316765036	-0.5596192810991125	0.0	0.7506901622516882	-0.6646673814028412	0.0	0.7288020286968068	-0.7650479917646861	0.0	0.7665231202144045	-0.7973152995313039	0.0	0.7603481712294109	-0.7927452431868962	0.0	0.7150613047645673	-0.7813658164440177	0.0	0.7719305246732313	-0.41208723230084165	0.0	0.791198783370507	-0.3441101650036157	0.0	0.7988608701690065	-0.3807889077116975	0.0	0.7502403999585792	-0.43151928177959964	0.0	0.7443707957364434	-0.5096505902690738	0.0	0.7873493063309865	-0.546798768868626	0.0	0.7801288864998498	-0.43272375541661334	0.0	0.77555722554198	-0.5018579581335914	0.0	0.8205408407311656	-0.5312737449737337	0.0
126	4.226415094339622	0.7566437801772006	-0.5528807751137921	0.0	0.7543892480200203	-0.5537134102835343	0.0	0.7985918557033229	-0.6542280129782472	0.0	0.7432998082892438	-0.7480192073664382	0.0	0.7702963382279899	-0.7878706657394144	0.0	0.7591826195479775	-0.7866823785912568	0.0	0.7271652142955275	-0.7637041244087135	0.0	0.7545784827537398	-0.5526621713675839	0.0	0.7504931679248988	-0.6575973389034396	0.0	0.7297815068048309	-0.7580917622943162	0.0	0.7697521852993896	-0.7896002705245475	0.0	0.7634846692473701	-0.7855738448272052	0.0	0.7172868920882767	-0.7747767770881019	0.0	0.7732532982040686	-0.40413998812078733	0.0	0.7930432072128888	-0.33645909191274237	0.0	0.8006095535967275	-0.37263236319890275	0.0	0.7522392158798812	-0.4249600656802796	0.0	0.7433828544749767	-0.5045113267511885	0.0	0.7789304247150898	-0.5570671251106375	0.0	0.7813346513482118	-0.42457923778645623	0.0	0.7735021166961191	-0.49487405024118	0.0	0.8130635042310158	-0.5316164463957945	0.0
127	4.259958071278826	0.7586715936693168	-0.5474121652698888	0.0	0.7577842818667623	-0.5482534118099176	0.0	0.8054290594575776	-0.6460738273867136	0.0	0.7526793736084867	-0.7405988374524636	0.0	0.7807316505996882	-0.7800059735704131	0.0	0.7705563711984639	-0.7794236761029323	0.0	0.7376319960808745	-0.7570603559661359	0.0	0.7542060185646957	-0.5472272676458543	0.0	0.7505280524488812	-0.6521150943207173	0.0	0.7306142422117587	-0.7529915153787742	0.0	0.7723607256253971	-0.7827429590247909	0.0	0.7659946971350727	-0.7793292915873818	0.0	0.7195422615541848	-0.7695257155983017	0.0	0.7744338299838157	-0.39765172090815815	0.0	0.7944508715379118	-0.33037829912534317	0.0	0.8023478191701036	-0.36589232545185746	0.0	0.7543650923804001	-0.4194763644184715	0.0	0.7433843480269628	-0.49925694000867604	0.0	0.7713206465179039	-0.5621494871606778	0.0	0.7824709789389459	-0.4178043024871855	0.0	0.7724547100864668	-0.48802708024786834	0.0	0.8060316251887031	-0.5293247056475304	0.0
128	4.293501048218029	0.7607034482541748	-0.5435530548934832	0.0	0.7608502795407114	-0.5444016946287896	0.0	0.8109397298022777	-0.63993369486117	0.0	0.7643284233104028	-0.7363758474985895	0.0	0.7942789248590724	-0.7736795237570337	0.0	0.7848757330361201	-0.7741196614468255	0.0	0.7506765318712683	-0.7535168133063095	0.0	0.7542975792634273	-0.5434021297094795	0.0	0.7508536372554189	-0.6485136541419363	0.0	0.7310698933642983	-0.7498594081182851	0.0	0.7736740165818324	-0.7776881346061474	0.0	0.7671822109908476	-0.7747914677465424	0.0	0.7213478032914719	-0.7659272063442719	0.0	0.7755986684547018	-0.39329810284305344	0.0	0.7956511845241152	-0.32615585351871645	0.0	0.8040558796052251	-0.36123142402843234	0.0	0.7566443647835741	-0.4155475611379939	0.0	0.7439338815334682	-0.49479389924071726	0.0	0.7658472494217885	-0.5634365241499728	0.0	0.7833554483948622	-0.41304681897103895	0.0	0.771889860066649	-0.4824897218313603	0.0	0.8005235209828442	-0.5262218788139628	0.0
129	4.327044025157232	0.762540749424496	-0.5415511114495547	0.0	0.7634873363353005	-0.5424653256613349	0.0	0.8150626982478518	-0.6364012495378634	0.0	0.777728270564267	-0.7354738180059143	0.0	0.8102310762838025	-0.7694357488322815	0.0	0.8014290235767996	-0.7711679436868593	0.0	0.7655480212230963	-0.75314235773432	0.0	0.7546603926564734	-0.5413560858124932	0.0	0.7514399982609531	-0.6470109894166692	0.0	0.7310895886499095	-0.7486726947105237	0.0	0.7732862319567865	-0.7751222969797947	0.0	0.7665137766601189	-0.7724969022152729	0.0	0.7224335896561163	-0.7642329100431801	0.0	0.7768861148010107	-0.3914728581448391	0.0	0.7968186475414705	-0.3240003286867661	0.0	0.8056973174957686	-0.3590160885320657	0.0	0.7591162321026765	-0.4136116318634345	0.0	0.7447733813630784	-0.4918520224528779	0.0	0.763274521829467	-0.56274189947151	0.0	0.7839242245262331	-0.41076193090594115	0.0	0.7715949233186712	-0.47913715361189607	0.0	0.7971405278952056	-0.5238074738624531	0.0
130	4.360587002096436	0.764002209006212	-0.541781569749702	0.0	0.7657274852875405	-0.5427946896183371	0.0	0.8179659689384995	-0.635817642609895	0.0	0.7919047438691149	-0.7377086204917102	0.0	0.8272047163933067	-0.7676760004097998	0.0	0.8189151108607521	-0.7707445485334472	0.0	0.7811738996561571	-0.7557560776834797	0.0	0.7551005897561838	-0.5414068387028357	0.0	0.7521553979362312	-0.6476750818012088	0.0	0.7307507262194864	-0.7494155533320911	0.0	0.7714531332881537	-0.7752344065637717	0.0	0.764103104815675	-0.7725932527148955	0.0	0.7227803183773015	-0.76465929612605	0.0	0.7783866023250319	-0.3922767548639309	0.0	0.798051408335813	-0.32408557793126336	0.0	0.807302798503306	-0.3593667832383789	0.0	0.7617775345898372	-0.4139672093678822	0.0	0.7458167509747078	-0.4909980864830757	0.0	0.763709675404354	-0.5618217872488867	0.0	0.7842275082803907	-0.4111554980258996	0.0	0.7716707193272035	-0.4785000878623662	0.0	0.7960070429034279	-0.5230863549622563	0.0
